<?xml version="1.0" encoding="UTF-8"?>
<svg xmlns="http://www.w3.org/2000/svg" xmlns:xlink="http://www.w3.org/1999/xlink" width="512px" height="512px" viewBox="0 0 512 512" version="1.1">
<g id="surface1">
<path style=" stroke:none;fill-rule:nonzero;fill:rgb(38.82353%,5.490196%,83.137256%);fill-opacity:1;" d="M 0 393.746094 L 0 0 L 74.378906 0 C 87.726562 0 99.515625 4.757812 109.746094 14.269531 C 120.148438 23.785156 128.296875 37.878906 134.191406 56.550781 C 140.085938 75.226562 143.035156 98.304688 143.035156 125.789062 C 143.035156 152.566406 140 175.292969 133.933594 193.96875 C 128.039062 212.640625 119.886719 226.910156 109.484375 236.777344 C 99.257812 246.289062 87.554688 251.046875 74.378906 251.046875 L 40.308594 251.046875 L 40.308594 393.746094 Z M 40.308594 179.695312 L 74.636719 179.695312 C 80.359375 179.695312 85.300781 177.40625 89.460938 172.828125 C 93.621094 168.246094 96.828125 161.902344 99.082031 153.800781 C 101.511719 145.695312 102.722656 136.359375 102.722656 125.789062 C 102.722656 114.867188 101.511719 105.351562 99.082031 97.25 C 96.828125 89.144531 93.621094 82.800781 89.460938 78.222656 C 85.300781 73.640625 80.359375 71.351562 74.636719 71.351562 L 40.308594 71.351562 Z M 222.84375 400.089844 C 207.761719 400.089844 194.667969 393.394531 183.574219 380.003906 C 172.476562 366.261719 163.894531 347.941406 157.828125 325.039062 C 151.757812 302.136719 148.726562 276.765625 148.726562 248.933594 C 148.726562 220.042969 151.847656 194.320312 158.085938 171.769531 C 164.503906 149.21875 173.085938 131.425781 183.835938 118.390625 C 194.582031 105.351562 206.71875 98.835938 220.242188 98.835938 C 231.511719 98.835938 241.480469 102.535156 250.148438 109.933594 C 258.820312 116.980469 266.101562 127.019531 271.996094 140.058594 C 278.0625 153.09375 282.65625 168.246094 285.777344 185.511719 C 288.898438 202.421875 290.460938 220.921875 290.460938 241.003906 C 290.460938 246.640625 290.285156 252.28125 289.941406 257.917969 C 289.765625 263.203125 289.332031 267.78125 288.640625 271.660156 L 182.273438 271.660156 L 182.273438 213.523438 L 266.535156 213.523438 L 248.070312 241.003906 C 249.804688 225.855469 249.71875 212.464844 247.808594 200.835938 C 245.902344 188.859375 242.519531 179.519531 237.667969 172.828125 C 232.984375 165.777344 227.175781 162.257812 220.242188 162.257812 C 213.480469 162.257812 207.671875 165.605469 202.820312 172.296875 C 197.964844 178.992188 194.324219 188.859375 191.894531 201.894531 C 189.46875 214.929688 188.515625 230.785156 189.035156 249.460938 C 188.34375 265.667969 189.296875 279.9375 191.894531 292.269531 C 194.496094 304.605469 198.484375 314.292969 203.859375 321.339844 C 209.234375 328.035156 215.734375 331.382812 223.363281 331.382812 C 230.296875 331.382812 236.195312 328.5625 241.046875 322.925781 C 246.074219 317.289062 249.976562 309.535156 252.75 299.671875 L 283.957031 329.796875 C 281.183594 343.890625 276.761719 356.222656 270.695312 366.792969 C 264.800781 377.363281 257.777344 385.640625 249.628906 391.632812 C 241.480469 397.269531 232.554688 400.089844 222.84375 400.089844 Z M 376.625 510.019531 C 365.703125 510.019531 355.5625 506.320312 346.199219 498.921875 C 336.835938 491.523438 328.773438 481.128906 322.011719 467.738281 C 315.425781 454.703125 310.65625 439.199219 307.710938 421.230469 L 343.859375 395.332031 C 345.765625 408.722656 349.667969 419.292969 355.5625 427.042969 C 361.457031 434.792969 368.476562 438.671875 376.625 438.671875 C 383.042969 438.671875 388.589844 436.203125 393.269531 431.269531 C 397.953125 426.691406 401.503906 419.820312 403.933594 410.660156 C 406.535156 401.496094 407.835938 390.75 407.835938 378.417969 L 407.835938 312.355469 L 415.375 331.382812 C 410.523438 347.589844 404.28125 359.746094 396.652344 367.847656 C 389.023438 375.601562 380.09375 379.476562 369.863281 379.476562 C 356.6875 379.476562 344.898438 373.484375 334.496094 361.507812 C 324.09375 349.175781 315.945312 332.4375 310.050781 311.296875 C 304.15625 289.804688 301.207031 265.492188 301.207031 238.363281 C 301.207031 211.230469 304.15625 187.273438 310.050781 166.484375 C 315.945312 145.34375 324.007812 128.78125 334.234375 116.804688 C 344.464844 104.824219 356.082031 98.835938 369.085938 98.835938 C 379.3125 98.835938 388.242188 103.0625 395.871094 111.519531 C 403.5 119.621094 410 132.128906 415.375 149.042969 L 410.433594 168.070312 L 410.433594 105.175781 L 446.84375 105.175781 L 446.84375 378.417969 C 446.84375 403.789062 443.808594 426.335938 437.742188 446.070312 C 431.671875 466.152344 423.351562 481.832031 412.773438 493.105469 C 402.371094 504.382812 390.324219 510.019531 376.625 510.019531 Z M 375.324219 307.597656 C 381.914062 307.597656 387.636719 304.777344 392.492188 299.140625 C 397.34375 293.503906 401.074219 285.578125 403.671875 275.359375 C 406.445312 265.140625 407.835938 253.160156 407.835938 239.417969 C 407.835938 225.679688 406.445312 213.699219 403.671875 203.480469 C 400.898438 192.910156 397.085938 184.804688 392.230469 179.167969 C 387.375 173.179688 381.742188 170.183594 375.324219 170.183594 C 368.738281 170.183594 362.84375 173.179688 357.640625 179.167969 C 352.613281 184.804688 348.625 192.910156 345.679688 203.480469 C 342.90625 213.699219 341.519531 225.679688 341.519531 239.417969 C 341.519531 252.808594 342.90625 264.613281 345.679688 274.828125 C 348.625 285.046875 352.613281 293.152344 357.640625 299.140625 C 362.84375 304.777344 368.738281 307.597656 375.324219 307.597656 Z M 469.0625 393.746094 L 469.0625 105.175781 L 508.070312 105.175781 L 508.070312 393.746094 Z M 469.0625 79.277344 L 469.0625 0 L 508.070312 0 L 508.070312 79.277344 Z M 469.0625 79.277344 "/>
</g>
</svg>
