<?xml version="1.0" encoding="UTF-8"?>
<svg xmlns="http://www.w3.org/2000/svg" xmlns:xlink="http://www.w3.org/1999/xlink" width="192px" height="192px" viewBox="0 0 192 192" version="1.1">
<g id="surface1">
<path style=" stroke:none;fill-rule:nonzero;fill:rgb(38.82353%,5.490196%,83.137256%);fill-opacity:1;" d="M 0 147.65625 L 0 0 L 27.890625 0 C 32.898438 0 37.320312 1.785156 41.15625 5.351562 C 45.054688 8.917969 48.113281 14.203125 50.320312 21.207031 C 52.53125 28.210938 53.636719 36.863281 53.636719 47.171875 C 53.636719 57.210938 52.5 65.734375 50.222656 72.738281 C 48.015625 79.742188 44.957031 85.09375 41.058594 88.792969 C 37.222656 92.359375 32.832031 94.140625 27.890625 94.140625 L 15.117188 94.140625 L 15.117188 147.65625 Z M 15.117188 67.386719 L 27.988281 67.386719 C 30.132812 67.386719 31.988281 66.527344 33.546875 64.808594 C 35.109375 63.09375 36.3125 60.714844 37.15625 57.675781 C 38.066406 54.636719 38.523438 51.132812 38.523438 47.171875 C 38.523438 43.074219 38.066406 39.507812 37.15625 36.46875 C 36.3125 33.429688 35.109375 31.050781 33.546875 29.332031 C 31.988281 27.617188 30.132812 26.757812 27.988281 26.757812 L 15.117188 26.757812 Z M 83.566406 150.03125 C 77.910156 150.03125 73 147.523438 68.839844 142.5 C 64.679688 137.347656 61.460938 130.476562 59.183594 121.890625 C 56.910156 113.300781 55.773438 103.789062 55.773438 93.351562 C 55.773438 82.515625 56.941406 72.871094 59.28125 64.414062 C 61.6875 55.957031 64.90625 49.285156 68.9375 44.394531 C 72.96875 39.507812 77.519531 37.0625 82.589844 37.0625 C 86.816406 37.0625 90.554688 38.449219 93.804688 41.226562 C 97.058594 43.867188 99.789062 47.632812 102 52.523438 C 104.273438 57.410156 105.996094 63.09375 107.167969 69.566406 C 108.335938 75.910156 108.921875 82.84375 108.921875 90.375 C 108.921875 92.492188 108.859375 94.605469 108.726562 96.71875 C 108.664062 98.699219 108.5 100.417969 108.238281 101.871094 L 68.351562 101.871094 L 68.351562 80.070312 L 99.949219 80.070312 L 93.027344 90.375 C 93.675781 84.695312 93.644531 79.675781 92.929688 75.3125 C 92.214844 70.820312 90.945312 67.320312 89.125 64.808594 C 87.371094 62.167969 85.191406 60.847656 82.589844 60.847656 C 80.054688 60.847656 77.878906 62.101562 76.058594 64.613281 C 74.238281 67.121094 72.871094 70.820312 71.960938 75.710938 C 71.050781 80.597656 70.691406 86.546875 70.886719 93.546875 C 70.628906 99.625 70.984375 104.976562 71.960938 109.601562 C 72.9375 114.226562 74.433594 117.859375 76.445312 120.503906 C 78.460938 123.011719 80.902344 124.269531 83.761719 124.269531 C 86.363281 124.269531 88.574219 123.210938 90.394531 121.097656 C 92.277344 118.984375 93.742188 116.074219 94.78125 112.375 L 106.484375 123.671875 C 105.445312 128.957031 103.785156 133.582031 101.511719 137.546875 C 99.300781 141.511719 96.667969 144.617188 93.609375 146.863281 C 90.554688 148.976562 87.207031 150.03125 83.566406 150.03125 Z M 141.234375 191.257812 C 137.140625 191.257812 133.335938 189.871094 129.824219 187.09375 C 126.3125 184.320312 123.289062 180.421875 120.753906 175.402344 C 118.285156 170.511719 116.496094 164.699219 115.390625 157.960938 L 128.945312 148.25 C 129.664062 153.269531 131.125 157.234375 133.335938 160.140625 C 135.546875 163.046875 138.179688 164.5 141.234375 164.5 C 143.640625 164.5 145.722656 163.578125 147.476562 161.726562 C 149.230469 160.007812 150.566406 157.433594 151.476562 153.996094 C 152.449219 150.5625 152.9375 146.53125 152.9375 141.90625 L 152.9375 117.132812 L 155.765625 124.269531 C 153.945312 130.347656 151.605469 134.902344 148.746094 137.941406 C 145.882812 140.851562 142.535156 142.304688 138.699219 142.304688 C 133.757812 142.304688 129.335938 140.058594 125.4375 135.566406 C 121.535156 130.941406 118.480469 124.664062 116.269531 116.738281 C 114.058594 108.675781 112.953125 99.558594 112.953125 89.386719 C 112.953125 79.210938 114.058594 70.226562 116.269531 62.429688 C 118.480469 54.503906 121.503906 48.292969 125.339844 43.800781 C 129.175781 39.308594 133.53125 37.0625 138.40625 37.0625 C 142.242188 37.0625 145.589844 38.648438 148.453125 41.820312 C 151.3125 44.859375 153.75 49.550781 155.765625 55.890625 L 153.914062 63.027344 L 153.914062 39.441406 L 167.566406 39.441406 L 167.566406 141.90625 C 167.566406 151.421875 166.429688 159.875 164.152344 167.277344 C 161.878906 174.808594 158.757812 180.6875 154.789062 184.914062 C 150.890625 189.144531 146.371094 191.257812 141.234375 191.257812 Z M 140.746094 115.347656 C 143.21875 115.347656 145.363281 114.292969 147.183594 112.179688 C 149.003906 110.0625 150.402344 107.089844 151.378906 103.257812 C 152.417969 99.425781 152.9375 94.933594 152.9375 89.78125 C 152.9375 84.628906 152.417969 80.136719 151.378906 76.304688 C 150.335938 72.339844 148.90625 69.300781 147.085938 67.1875 C 145.265625 64.941406 143.152344 63.820312 140.746094 63.820312 C 138.277344 63.820312 136.066406 64.941406 134.117188 67.1875 C 132.230469 69.300781 130.734375 72.339844 129.628906 76.304688 C 128.589844 80.136719 128.070312 84.628906 128.070312 89.78125 C 128.070312 94.804688 128.589844 99.230469 129.628906 103.0625 C 130.734375 106.894531 132.230469 109.933594 134.117188 112.179688 C 136.066406 114.292969 138.277344 115.347656 140.746094 115.347656 Z M 175.898438 147.65625 L 175.898438 39.441406 L 190.527344 39.441406 L 190.527344 147.65625 Z M 175.898438 29.730469 L 175.898438 0 L 190.527344 0 L 190.527344 29.730469 Z M 175.898438 29.730469 "/>
</g>
</svg>
