<?xml version="1.0" encoding="UTF-8"?>
<svg xmlns="http://www.w3.org/2000/svg" xmlns:xlink="http://www.w3.org/1999/xlink" width="72px" height="72px" viewBox="0 0 72 72" version="1.1">
<g id="surface1">
<path style=" stroke:none;fill-rule:nonzero;fill:rgb(38.82353%,5.490196%,83.137256%);fill-opacity:1;" d="M 0 55.371094 L 0 0 L 10.460938 0 C 12.335938 0 13.996094 0.667969 15.433594 2.007812 C 16.894531 3.34375 18.042969 5.328125 18.871094 7.953125 C 19.699219 10.578125 20.113281 13.824219 20.113281 17.6875 C 20.113281 21.453125 19.6875 24.652344 18.835938 27.277344 C 18.003906 29.902344 16.859375 31.910156 15.394531 33.296875 C 13.957031 34.632812 12.3125 35.304688 10.460938 35.304688 L 5.667969 35.304688 L 5.667969 55.371094 Z M 5.667969 25.269531 L 10.496094 25.269531 C 11.300781 25.269531 11.996094 24.949219 12.582031 24.304688 C 13.164062 23.660156 13.617188 22.769531 13.933594 21.628906 C 14.273438 20.488281 14.445312 19.175781 14.445312 17.6875 C 14.445312 16.152344 14.273438 14.816406 13.933594 13.675781 C 13.617188 12.535156 13.164062 11.644531 12.582031 11 C 11.996094 10.355469 11.300781 10.035156 10.496094 10.035156 L 5.667969 10.035156 Z M 31.335938 56.261719 C 29.214844 56.261719 27.375 55.320312 25.816406 53.4375 C 24.253906 51.503906 23.046875 48.929688 22.195312 45.707031 C 21.339844 42.488281 20.914062 38.921875 20.914062 35.007812 C 20.914062 30.941406 21.351562 27.324219 22.230469 24.15625 C 23.132812 20.984375 24.339844 18.480469 25.851562 16.648438 C 27.363281 14.816406 29.070312 13.898438 30.972656 13.898438 C 32.554688 13.898438 33.957031 14.417969 35.175781 15.460938 C 36.394531 16.449219 37.421875 17.863281 38.25 19.695312 C 39.101562 21.527344 39.75 23.660156 40.1875 26.085938 C 40.625 28.464844 40.847656 31.066406 40.847656 33.890625 C 40.847656 34.683594 40.820312 35.476562 40.773438 36.269531 C 40.75 37.011719 40.6875 37.65625 40.589844 38.203125 L 25.632812 38.203125 L 25.632812 30.027344 L 37.480469 30.027344 L 34.886719 33.890625 C 35.128906 31.761719 35.117188 29.878906 34.847656 28.242188 C 34.578125 26.558594 34.105469 25.246094 33.421875 24.304688 C 32.761719 23.3125 31.945312 22.816406 30.972656 22.816406 C 30.019531 22.816406 29.203125 23.289062 28.519531 24.230469 C 27.839844 25.171875 27.328125 26.558594 26.984375 28.390625 C 26.644531 30.226562 26.511719 32.453125 26.582031 35.082031 C 26.484375 37.359375 26.621094 39.367188 26.984375 41.101562 C 27.351562 42.835938 27.910156 44.199219 28.667969 45.1875 C 29.421875 46.128906 30.335938 46.601562 31.410156 46.601562 C 32.386719 46.601562 33.214844 46.203125 33.898438 45.410156 C 34.605469 44.617188 35.152344 43.527344 35.542969 42.140625 L 39.933594 46.378906 C 39.542969 48.359375 38.917969 50.09375 38.066406 51.582031 C 37.238281 53.066406 36.25 54.230469 35.105469 55.074219 C 33.957031 55.867188 32.703125 56.261719 31.335938 56.261719 Z M 52.964844 71.722656 C 51.425781 71.722656 50 71.203125 48.683594 70.160156 C 47.367188 69.121094 46.234375 67.660156 45.28125 65.777344 C 44.355469 63.941406 43.6875 61.761719 43.273438 59.234375 L 48.355469 55.59375 C 48.625 57.476562 49.171875 58.960938 50 60.054688 C 50.828125 61.144531 51.816406 61.6875 52.964844 61.6875 C 53.863281 61.6875 54.644531 61.339844 55.304688 60.648438 C 55.960938 60.003906 56.460938 59.039062 56.804688 57.75 C 57.167969 56.460938 57.351562 54.949219 57.351562 53.214844 L 57.351562 43.925781 L 58.414062 46.601562 C 57.730469 48.878906 56.851562 50.589844 55.777344 51.730469 C 54.707031 52.820312 53.449219 53.363281 52.011719 53.363281 C 50.160156 53.363281 48.5 52.519531 47.039062 50.835938 C 45.574219 49.101562 44.429688 46.75 43.601562 43.777344 C 42.773438 40.753906 42.355469 37.335938 42.355469 33.519531 C 42.355469 29.703125 42.773438 26.335938 43.601562 23.410156 C 44.429688 20.4375 45.5625 18.109375 47 16.425781 C 48.441406 14.742188 50.074219 13.898438 51.902344 13.898438 C 53.339844 13.898438 54.597656 14.492188 55.667969 15.683594 C 56.742188 16.820312 57.65625 18.582031 58.414062 20.960938 L 57.71875 23.636719 L 57.71875 14.789062 L 62.835938 14.789062 L 62.835938 53.214844 C 62.835938 56.78125 62.410156 59.953125 61.558594 62.726562 C 60.703125 65.554688 59.535156 67.757812 58.046875 69.34375 C 56.582031 70.929688 54.890625 71.722656 52.964844 71.722656 Z M 52.78125 43.257812 C 53.707031 43.257812 54.511719 42.859375 55.195312 42.066406 C 55.875 41.273438 56.402344 40.160156 56.765625 38.722656 C 57.15625 37.285156 57.351562 35.601562 57.351562 33.667969 C 57.351562 31.734375 57.15625 30.050781 56.765625 28.613281 C 56.375 27.128906 55.839844 25.988281 55.15625 25.195312 C 54.476562 24.351562 53.683594 23.933594 52.78125 23.933594 C 51.855469 23.933594 51.023438 24.351562 50.292969 25.195312 C 49.585938 25.988281 49.027344 27.128906 48.609375 28.613281 C 48.222656 30.050781 48.027344 31.734375 48.027344 33.667969 C 48.027344 35.550781 48.222656 37.210938 48.609375 38.648438 C 49.027344 40.085938 49.585938 41.222656 50.292969 42.066406 C 51.023438 42.859375 51.855469 43.257812 52.78125 43.257812 Z M 65.960938 55.371094 L 65.960938 14.789062 L 71.449219 14.789062 L 71.449219 55.371094 Z M 65.960938 11.148438 L 65.960938 0 L 71.449219 0 L 71.449219 11.148438 Z M 65.960938 11.148438 "/>
</g>
</svg>
